<?xml version="1.0" encoding="UTF-8"?>
<svg version="1.0" viewBox="0 0 700 699.9" xmlns="http://www.w3.org/2000/svg">
 <path transform="matrix(-2.069 -.8993 .8494 -2.066 1646 2146)" d="m991.1 506.3a156.7 155 0 1 1 -313.4 0 156.7 155 0 1 1 313.4 0z" fill="#1a1a1a" fill-rule="evenodd"/>
 <path d="m635.9 440.3a304.5 295.4 44.87 0 1 -585.21 -142.4 304.5 295.4 44.87 1 1 585.21 142.4z" fill="#4c1f9f"/>
 <g transform="matrix(1.219 .2741 -.2595 1.119 1779 161.1)">
  <path d="m-858.1 569c-11.4 16.1-24.6 30.8-39.3 43.8-80.5-46.5-266.6-99.8-415.6-110.6-9-26-14-53.8-14-82.7 0-64.5 24-123.6 63-168.8 158 96.4 295.8 211.4 405.9 318.3z" fill="#e0012e"/>
  <path d="m-858.2 569c-7.7 12.1-16.6 21.7-25.9 31.3-134.9-111.6-425.9-152-442.9-180.5 0-64.6 24-123.8 63-169.1 158 96.5 295.7 211.5 405.8 318.3z" fill="#ffdd02"/>
  <path d="m-1308 323.6c10-26.8 26-51.4 44-73 158 96.5 295.8 211.5 405.9 318.4-4 5.6-8.2 11-12.6 16.2-116.2-94.4-272.3-189.2-437.3-261.6z" fill="#5ab5de"/>
  <path d="m-879.3 595.1c-3 3.3-6.1 6.5-9.3 9.6-110.6-62.1-345.4-156.6-436.4-157.5-1-9.1-2-18.3-2-27.7 0-10.4 1-20.7 2-30.8 167 40.3 312 128.1 445.7 206.4z" fill="#e96a27"/>
 </g>
 <path d="m385.1 497.9c-11.4 0.2-16.6 12.4-24.6 18.5-12.5 3.1-25.2 12.1-26.8 25.9-13 4.7-17.4 20.1-16.6 32.7-9.9 10.4-26.3 13.1-32.8 27-7.6 12.8-5.1 30.8 7.1 39.9 16.3 13.9 39 11.7 59 13.6 22.3 1.5 45.2 4.2 67.3 0.7 9.2-7.5 13.4-20.9 8.4-31.9 8.9-7.7 4.9-21-0.2-29.6-6.4-8-1.7-18.6 1.4-26.9 2.4-14.7-8.9-26.7-13.7-39.6-2.7-11.7-7.2-25.6-20.2-29.2-2.6-0.9-5.5-1.2-8.3-1.1z" fill="#f8c" fill-rule="evenodd"/>
 <g transform="matrix(3.365 .7684 -.7684 3.365 -2205 -3728)" fill="#ff0">
  <path d="m947.5 938.6-1-8.9-10.3-3.1 9.3-1.6 3-9.2 2 8.9 10 3.1-9 1.6-4 9.2z"/>
  <path d="m984.5 933-2-8.9-10-3.1 10-1.6 3-9.2 2 8.9 10 3.1-10 1.6-3 9.2z"/>
  <path d="m1055 1014-2-8-8-3 8-1 3-7.9 1 7.9 9 2-9 2-2 8z"/>
  <path d="m1036 983.2-1-7.8-8-2.7 8-1 3-7.8 1 7.8 9 2.7-9 1.1-3 7.7z"/>
  <path d="m1020 974.2-1-9-10-3.6 10-1.1 4-8.9 1 9 10 3.6-10 1.1-4 8.9z"/>
  <path d="m1031 948.6-1-9-9-3.6 9-1.1 4-9 1 9 10 3.7-10 1-4 9z"/>
  <path d="m931.8 1037-1.3-7-8.4-3 8.3-1 2.7-8 1.4 8 8 2-8 2-2.7 7z"/>
 </g>
 <path d="m215.3 457.8c-27.1 4.6-47.3 25.9-62.8 47.2-5.1 6-9.2 13.1-9.2 21.1-1 2.9-6 2.5-8.2 4.8-13.8 7.9-19.9 26.1-13.1 40.6 4.6 11.2 15.2 18.3 26.3 22.5 28.6 13.5 58.7 25.8 90.5 28.7 14-2.4 22.9-19.1 17.7-32.2 4.6-10.8 9.3-23 4.9-34.7-2.2-7.7-8-14.6-5.9-23 0.2-5.3-1.4-10.7-3.7-15.3 5.5-11.8 1.3-25.7-6.3-35.5-5.1-12.3-15.6-25-30.2-24.2z" fill="#f8c" fill-rule="evenodd"/>
 <path d="m312.5 660.2c24.2 5.5 77.3 7.5 102.6 8.1 7.1-8.5 6-3.7 3.3-14.5 1.1-4.8 1.1-4.8-2.6-10.8 1.1-4.8 10.8-2.6 7.1-8.6-2.7-10.8-11.3-17.8-7.9-32.3-2.7-10.8 7-8.6 3.3-14.6 2.2-9.7-2.7-10.8-10.1-22.7-2.7-10.8-4.2-26.4-13.9-28.6s-7 8.6-18.9 16c-6 3.8-13.2 2.1-20.3 10.7-1.1 4.8 2.6 10.8-3.3 14.5-1.1 4.9-9.7-2.2-11.9 7.5-7.1 8.6 2.6 10.8-5.5 24.2-13.1 12.4-28.7 13.9-30.9 23.6-8.2 13.4-3.3 14.5 9 27.5z" fill="#f9f9f9" fill-rule="evenodd"/>
 <path d="m134.5 587c17.2 14.1 69.4 31.1 88.8 35.6 9.6 2.2 1.1-4.9 2.2-9.7-4.9-1.1 0 0 1.1-4.9 2.2-9.7 8.1-13.4 5.5-24.2s-7.5-11.9-10.1-22.7c1.1-4.8 5.9-3.7 2.2-9.7 1.1-4.8-4.8-1.1-8.6-7 2.2-9.7 7.1-8.6 9.3-18.3-3.7-6-3.7-6-7.5-11.9-3.7-6-2.6-10.8-7.5-11.9-4.8-1.1-4.8-1.1-16.7 6.4-11.9 7.4-19 16-33.1 33.2-8.1 13.4 2.7 10.8-4.4 19.4-8.2 13.4-26.4 4.1-21.2 25.7z" fill="#f9f9f9" fill-rule="evenodd"/>
 <path d="m333.5 22.18c-16.7 0.27-33.4 1.8-49.9 4.63-43.8 7.56-85.8 24.26-122.5 48.78-36.8 24.51-68.09 56.71-91.57 94.11-23.49 37.5-39.01 79.9-45.35 124-5.81 40.4-3.89 82 5.6 122.2 9.48 40.1 26.51 78.5 49.94 112.8 23.38 34.2 53.08 64.1 87.28 87.8 34.1 23.6 72.4 40.9 112.5 50.6l0.1 0.1c40 9.7 81.7 11.8 122.1 6.3 40.5-5.6 79.6-18.8 114.8-38.9s66.3-47 91.3-78.9c25-31.8 43.7-68.5 55-107.6 12.3-42.7 15.6-88 9.7-132.5v-0.1c-5.9-44.4-20.9-87.7-43.9-126.6l-0.2-0.3c-23-38.8-53.8-73-90-99.92-36.4-26.98-78-46.56-121.7-57.18-27.3-6.64-55.3-9.75-83.2-9.32zm0.5 30.01c25.3-0.39 50.8 2.44 75.6 8.47 39.8 9.65 77.8 27.53 110.9 52.04 33.1 24.6 61.3 56 82.3 91.4 20.9 35.4 34.6 75 40 115.4 5.3 40.4 2.3 81.6-8.8 120.2-10.2 35.4-27.2 68.8-49.8 97.5l-0.4 0.6c-22.5 28.5-50.5 52.7-82.2 70.7-31.8 18.2-67.3 30.2-104 35.3-36.7 5-74.6 3-111-5.8-36.4-8.9-71.5-24.6-102.5-46.2l-0.3-0.1c-30.9-21.5-58.1-48.8-79.3-80-21.35-31.2-36.91-66.3-45.54-102.7-8.62-36.5-10.35-74.4-5.09-111.1 5.74-39.9 19.85-78.4 41.06-112.2 21.17-33.8 49.57-63.1 82.77-85.2 33.2-22.13 71.3-37.29 111-44.12 14.9-2.56 30-3.96 45.3-4.19z" color="#000000" fill="#f8c" style="block-progression:tb;text-indent:0;text-transform:none"/>
 <g transform="matrix(.7828 .1787 -.1787 .7828 -56.27 -401.4)">
  <path d="m603.6 947.2 111.5-11.5 3.6-90.8-133.6 3.3 18.5 99z" fill="#c2cedd" fill-rule="evenodd" stroke="#000" stroke-width="4.0278px"/>
  <path d="m502.2 808.1 73.9-58.3c9.9-7.6 11.8-17.4 13.7-28l49.4-217.1c5.4-17 17-28.6 30.1-34.4l-40.1 207.7-17.5 75.3-109.5 54.8z" fill="#fffffd" fill-rule="evenodd" stroke="#000" stroke-width="4.0278px"/>
  <path d="m501.9 808.4 73.8-58.3c10-7.6 11.9-17.4 13.8-28l49.4-217.1c4.3-13.6 12.6-23.8 22.5-30.2-14 24.6-47.7 189-64.8 284.1l-94.7 49.5z" fill="#c2cedd" fill-rule="evenodd"/>
  <path d="m643.1 495.5c7.3-1.3 14.3-1.5 21 0.6" fill="none" stroke="#000" stroke-width="4.0278px"/>
  <path d="m633.6 529.1c7.2-5 16.5-4.7 24.8-4.4" fill="none" stroke="#000" stroke-width="4.0278px"/>
  <path d="m625 567.7c9-5.1 16.4-4.5 24.3-3.8" fill="none" stroke="#000" stroke-width="4.0278px"/>
  <path d="m615.2 609.9c7.7-7.2 17.8-6 26.6-7.2" fill="none" stroke="#000" stroke-width="4.0278px"/>
  <path d="m605.1 653.1c8.2-7.6 18.8-7.1 27-7.9" fill="none" stroke="#000" stroke-width="4.0278px"/>
  <path d="m594 701.5c7.6-9 16.8-7.9 25-8.6" fill="none" stroke="#000" stroke-width="4.0278px"/>
  <path d="m583 742.1c7.5-13 19.5-16 29.8-21.8" fill="none" stroke="#000" stroke-width="4.0278px"/>
  <path d="m501.9 808.4 73.8-58.3c10-7.6 11.9-17.4 13.8-28l49.4-217.1c5.3-17 17-28.6 30.1-34.4l-40.1 207.7-17.5 75.3-109.5 54.8z" fill="none" stroke="#000" stroke-width="4.0278px"/>
  <path d="m658.1 514.5 6.2-52c6.7-50.3 54.7-88.1 67.6-87.9 14.4-0.7 33.7 36.2 42.5 62.7l-6.2 218.3-103.9-2.5-6.2-138.6z" fill="#e46725" fill-rule="evenodd" stroke="#000" stroke-width="4.0278px"/>
  <g transform="matrix(2.386,0,0,2.225,-20.07,-17.41)">
   <path d="m324.3 219.2c1.6-6 6-11.9 9.1-13.9 3.2 1.4 7.8 6.7 10.2 14.1l11.3 113.7c-11.7-8.6-26.7-11.9-32.4-31.9l1.8-82z" fill="#fffffd" fill-rule="evenodd" stroke="#000" stroke-width="1.7485px"/>
   <path d="m329.7 315.3c-3.1-3.6-5.6-8-7.3-14l1.8-82c1.6-6 6-11.9 9.1-13.9l0.1 0.3c-0.5 4.8-1.5 10.1-1.6 14.5l-2.1 95.1z" fill="#c2cedd" fill-rule="evenodd"/>
   <path d="m324.5 221.3c6.6-5.5 12.9-3.9 19-0.6" fill="none" stroke="#000" stroke-width="1.7485px"/>
   <path d="m323.8 235c5.9-4.2 12.2-6.8 21.1-0.5" fill="none" stroke="#000" stroke-width="1.7485px"/>
   <path d="m323.7 254c8.6-8.4 18.3-4.6 22.9-0.7" fill="none" stroke="#000" stroke-width="1.7485px"/>
   <path d="m323 272.3c7.6-5.8 16.5-7.4 25.8-0.3" fill="none" stroke="#000" stroke-width="1.7485px"/>
   <path d="m322.9 291.3c8.1-5 16.6-8.6 27.9 1.3" fill="none" stroke="#000" stroke-width="1.7485px"/>
   <path d="m325.8 309.2c10.6-4.8 19.9-0.3 27 3.6" fill="none" stroke="#000" stroke-width="1.7485px"/>
   <path d="m324.2 219.2c1.6-6 6-11.9 9.1-13.9 3.2 1.5 7.8 6.7 10.2 14.1l11.1 113.3c-11.8-8.6-26.3-11.9-32.1-31.9l1.7-81.6z" fill="none" stroke="#000" stroke-width="1.7485px"/>
  </g>
  <g transform="matrix(2.386,0,0,2.225,64.93,-60.8)">
   <path d="m199.5 441.4-4.1 17.5-14.8 26.1c20-1.9 40-1.2 60 8.9l-7.9-30.9-3.4-23.7-29.8 2.1z" fill="#fffffd" fill-rule="evenodd" stroke="#000" stroke-width="1.7485px"/>
   <g transform="translate(-34.86,20.03)">
    <path d="m270.9 456.5-3.4-13.3-3.5-23.7-25.9 1.9c14.9 6 21.9 23.3 32.8 35.1z" fill="#c2cedd" fill-rule="evenodd"/>
    <path d="m229.8 439.5c11.1-3.3 22-5.2 37.7 4" fill="none" stroke="#000" stroke-width="1.7485px"/>
    <path d="m234.3 421.3-4 17.5-14.9 26.1c20.1-1.9 40.1-1.2 60.1 9l-7.9-30.9-3.4-23.7-29.9 2z" fill="none" stroke="#000" stroke-width="1.7485px"/>
   </g>
  </g>
  <g transform="matrix(2.386,0,0,2.225,-20.07,-17.41)">
   <path d="m319.9 410.6-0.9 22.3-13.6 29.3c25.7-9 49.3-7.5 72.5-3.2l-15.2-31.2-0.7-38.5-42.3 8.1 0.2 13.2z" fill="#fffffd" fill-rule="evenodd" stroke="#000" stroke-width="1.7485px"/>
   <path d="m320 410.5-1 22.3-13.5 29.3c9-3.2 17.8-5.1 26.4-5.9 4.9-13.6-2.7-42.5 30.5-48.9l-0.3-18.1-42.3 8.1 0.2 13.2z" fill="#c2cedd" fill-rule="evenodd"/>
   <path d="m318.8 432.9c14.3-9 28.9-8.4 43.7-5.1" fill="none" stroke="#000" stroke-width="1.7485px"/>
   <path d="m319.8 410.3-0.9 22.3-13.6 29.3c25.7-9 49.3-7.4 72.5-3.2l-15.2-31.1-0.7-38.6-42.3 8.2 0.2 13.1z" fill="none" stroke="#000" stroke-width="1.7485px"/>
  </g>
  <path d="m613 931c-0.5 2.7-10.9 3.3-23.4 1.4-12.4-1.9-22.1-5.6-21.6-8.3l0.6-4.1 0.3-0.6c2.7-23.3 28.4-13.3 46.3-14.6 1.5 8.4 3.7 17.4-2.2 26.2z" fill="#010300" stroke="#000" stroke-width="4.0278"/>
  <path transform="matrix(2.354 .3576 -.3834 2.196 264.7 -96.19)" d="m218.3 432.2a9.56 2.222 0 1 1 -19.1 0 9.56 2.222 0 1 1 19.1 0z" fill="#fffffd" stroke="#000" stroke-width="1.7485"/>
  <path d="m714.7 872.1 208-37.2-9.4-59.6-92.4-55.2c-14.9-10.1-67.5-28-73-76l-15.5-119c-4.4-37.3-14.7-60.7-22.9-60-10.5-3.9-48.8 31.9-54.9 60.1l-47.9 212.1c-3.4 11.6-10.9 15.5-28.4 25.2l-154 93.6-23.2 62.8 177.2-39.3 136.4-7.5z" fill="#fffffd" fill-rule="evenodd" stroke="#000" stroke-width="8.0559"/>
  <path d="m701.9 920.1c0.2 3.9-11.6 7.8-26.4 8.6-14.8 0.9-27-1.7-27.2-5.6-5.8-16.7-2.2-33.7 2.3-50.3l33.5-1.9c10.7 15.2 16.9 31.5 17.8 49.2z" fill="#fffffd" stroke="#000" stroke-width="4.0278"/>
  <path d="m715.9 771 6.4-120.3m-6.3 120.1c-22.6-23.8-47.4-32.8-77.1-10.1l-10.7 73.4c22.8-9.9 46.8-9.3 72.3 6.5l-1 22.2 11.1 12.4 5.4-104.4z" fill="none" stroke="#000" stroke-width="4.0278px"/>
  <path d="m438.1 910.5 12.8-37.1 126.5-50.4-15.2 59.7" fill="none" stroke="#000" stroke-width="4.0278px"/>
  <path d="m643.6 908c-0.7 5.8-16.8 8.9-35.8 6.8-19-2-33.8-8.4-33.1-14.2 1.5-14.5 5.7-31.3 17-46.5 9.7-14.8 38.7-6.9 44.5 5 5.9 11.9 9.4 32.2 7.4 48.9z" fill="#c2cedd" stroke="#000" stroke-width="4.0278"/>
  <path d="m483.8 900.4-10.2 26.6 106.6-7.8-0.7-40-95.7 21.2z" fill="#fffffd" fill-rule="evenodd" stroke="#000" stroke-width="4.0278px"/>
  <path d="m607.8 915c-19-2-33.8-8.4-33.1-14.3 1.5-14.4 5.7-31.2 17-46.5 5.7-8.7 18.1-9.6 28.5-6.4l0.4 0.1c-21.8 32.8-13.5 47.6-12.8 67.1z" fill="#010300" stroke="#000" stroke-width="4.0278"/>
  <path transform="matrix(2.37 .2558 -.2743 2.21 97.93 -81.87)" d="m278.4 415.7a14.55 4.77 0 1 1 -29.1 0 14.55 4.77 0 1 1 29.1 0z" fill="#fffffd" stroke="#000" stroke-width="1.7485"/>
  <path d="m628.2 833.6c22.9-9.9 46-9.3 71.6 6.6l-1 22.1 11 12.4 0.2 8.8-65.8 0.5c-3.1-17.6-8.2-30.6-17.6-34l1.6-16.4z" fill="#c2cedd" fill-rule="evenodd" stroke="#000" stroke-width="4.0278px"/>
  <path d="m675.5 928.9c-14.8 0.9-27-1.7-27.3-5.6-5.7-16.7-1.2-34.9 3.3-51.5l15.1 0.3c-3 29.4-0.7 49.3 8.9 56.8z" fill="#010300" stroke="#000" stroke-width="4.0278"/>
  <path transform="matrix(2.381 -.1335 .1432 2.221 -81.19 18.92)" d="m303.4 424a11.25 3.231 0 1 1 -22.5 0 11.25 3.231 0 1 1 22.5 0z" fill="#fffffd" stroke="#000" stroke-width="1.7485"/>
  <path d="m682.2 872.8c0 2.3-6.9 4.2-15.4 4.2s-15.4-1.9-15.4-4.2c0.7-7.3-0.4-13.5 3.6-23.1 4.7-11.6 18.7-6.5 21.1-0.3 3.9 8.4 4.7 15.8 6.1 23.4z" fill="#c2cedd" stroke="#000" stroke-width="4.0278"/>
  <path d="m666.9 877c-8.5 0-15.4-1.8-15.4-4.2 0.7-7.3-0.4-13.4 3.6-23.1 2.4-6.1 7.5-7.6 12.1-6.7l2.8 1.2c-5.7 10.5-2.5 21.9-3.1 32.8z" fill="#010300" stroke="#000" stroke-width="4.0278"/>
  <path transform="matrix(2.386,0,0,2.225,-20.07,-17.41)" d="m294.4 400.1a6.5 1.908 0 1 1 -13 0 6.5 1.908 0 1 1 13 0z" fill="#fffffd" stroke="#000" stroke-width="1.7485"/>
  <path d="m628.3 839.7 24.8 13.4" fill="none" stroke="#000" stroke-width="4.0278px"/>
  <path d="m681.1 863.5 16.9-0.4" fill="none" stroke="#000" stroke-width="4.0278px"/>
  <path d="m709.7 466.3c-10.5-3.9-47.9 31.1-54.1 59.3l-47.8 212.1 32.2 0.2 39.9-218.4c4.1-20.2 12-39.7 29.8-53.2z" fill="#c2cedd" fill-rule="evenodd"/>
  <path d="m666.4 501 4.3-6.9 27.1 0.4c8.1 0.1 9.9 5.2 11.8 10.3l-4 4.3c-2.3-5-3.8-7.6-11.8-7.8l-27.1-0.3" fill-rule="evenodd" stroke="#000" stroke-width="4.0278px"/>
  <path d="m654.3 524.8 41.9-1.3c5.9-0.4 9.9 1.4 11.4 6" fill="none" stroke="#000" stroke-width="4.0278px"/>
  <path d="m606.6 737.5 81.1 1.1 22.8-195.7" fill="none" stroke="#000" stroke-width="5.6391"/>
  <path d="m718.4 871.6-1.8 32.3 95.7-20.8-0.5-28.4-93.4 16.9z" fill="#fffffd" fill-rule="evenodd" stroke="#000" stroke-width="4.0278px"/>
  <path d="m819.9 853.1 1 27.8 94.3-18.6-3.3-25.1-92 15.9z" fill="#fffffd" fill-rule="evenodd" stroke="#000" stroke-width="4.0278px"/>
  <path d="m639.9 761.3-10.3 70.5c8.4-2.8 16.5-5.1 24.2-5.8l9-76.3c-8.9 2.4-16.1 6.5-22.9 11.6z" fill="#c2cedd" fill-rule="evenodd"/>
  <path d="m594.6 849.3 13-110.7 55 0.7-0.1 8.3c-10.2 3.1-17.4 6.6-24.7 12.8-4.3 29.9-8.9 58.8-12.2 88.4-8.1-4.1-21.5-6.2-31 0.5z" fill="#c2cedd" fill-rule="evenodd"/>
  <path d="m563.5 876.7 48.9-49.3" fill="none" stroke="#000" stroke-width="4.0278px"/>
 </g>
</svg>
